<?xml version="1.0" encoding="UTF-8"?>
<!DOCTYPE svg PUBLIC "-//W3C//DTD SVG 1.1//EN" "http://www.w3.org/Graphics/SVG/1.1/DTD/svg11.dtd">
<!-- Creator: CorelDRAW X8 -->
<svg xmlns="http://www.w3.org/2000/svg" xml:space="preserve" width="49mm" height="11mm" version="1.1" style="shape-rendering:geometricPrecision; text-rendering:geometricPrecision; image-rendering:optimizeQuality; fill-rule:evenodd; clip-rule:evenodd"
viewBox="0 0 4900 1100"
 xmlns:xlink="http://www.w3.org/1999/xlink"
 xmlns:xodm="http://www.corel.com/coreldraw/odm/2003">
 <defs>
  <style type="text/css">
   <![CDATA[
    .fil0 {fill:#302F2F}
    .fil2 {fill:#333333}
    .fil1 {fill:#FF6600}
   ]]>
  </style>
 </defs>
 <g id="Layer_x0020_1">
  <metadata id="CorelCorpID_0Corel-Layer"/>
  <g id="_1722252727024">
   <path class="fil0" d="M1326 705c0,0 0,-2 0,-2 0,0 0,0 0,0l138 -334c0,0 0,0 0,0 6,-12 12,-23 19,-33 10,-10 21,-13 35,-13 13,0 25,3 34,13 10,10 14,21 14,35l0 376c0,6 -4,10 -10,10l-32 0c-6,0 -10,-4 -10,-10l0 -374c0,0 0,0 0,1 0,0 0,0 0,0l-140 336c0,0 0,0 0,0 -6,12 -12,24 -17,33 -8,12 -20,17 -33,17 -13,0 -25,-5 -33,-17 -7,-9 -13,-21 -17,-33 0,0 0,0 0,0l-140 -336c0,0 0,0 0,0 0,0 0,0 0,-1l0 374c0,6 -4,10 -10,10l-32 0c-6,0 -10,-4 -10,-10l0 -378c0,-14 4,-25 13,-35 10,-10 22,-13 35,-13 13,0 25,3 35,13 7,10 13,21 19,33 0,0 0,0 0,0l138 334c0,0 0,0 0,0 4,2 4,4 4,4l0 0z"/>
   <path class="fil0" d="M2789 641l-207 0c-6,0 -10,4 -12,8l-44 106c-2,3 -6,5 -10,5l-34 0c-4,0 -6,-2 -8,-3 -2,-2 -2,-6 0,-10l158 -373c2,-5 5,-11 7,-17 4,-6 6,-11 12,-15 4,-6 9,-10 15,-12 6,-4 14,-4 21,-4 16,0 27,6 37,18 8,9 13,21 19,32l157 373c2,4 2,6 0,9 -1,2 -3,4 -7,4l-35 0c-4,0 -7,-2 -9,-5l-45 -106c-5,-8 -11,-10 -15,-10l0 0zm-178 -48l145 0c4,0 8,-2 12,-5 2,-4 2,-8 2,-12l-77 -182c0,0 0,0 0,0 -2,-4 -4,-10 -6,-16 0,0 -2,-2 -2,-2 0,0 -1,2 -1,2 -2,6 -4,10 -6,16 0,0 0,0 0,0l-77 182c-2,4 -2,8 2,12 0,3 4,5 8,5l0 0z"/>
   <path class="fil0" d="M2401 563l0 142c0,5 0,11 -2,17 -2,10 -5,17 -11,23 0,0 0,0 0,0 -6,6 -14,10 -23,12 -8,1 -14,1 -21,1l-160 0c-17,0 -36,-1 -54,-9 -15,-6 -30,-14 -42,-23 -13,-12 -25,-25 -34,-40 -8,-16 -14,-31 -18,-47 -3,-15 -5,-32 -7,-48 0,-15 -2,-30 -2,-46 0,-17 0,-36 2,-53 2,-18 4,-37 9,-54 6,-17 14,-33 23,-48 12,-16 25,-29 43,-39 17,-9 34,-17 53,-21 16,-2 31,-4 46,-4l177 0c6,0 10,4 10,10l0 29c0,6 -4,9 -10,9l-184 0c-21,0 -42,4 -62,16 -15,9 -28,23 -38,40 0,0 0,0 0,0 -4,8 -8,17 -10,25 -2,10 -4,19 -5,31 -2,9 -2,19 -2,31 0,7 0,17 0,24 0,16 0,33 2,48 1,12 1,24 5,35 2,8 4,13 6,21 2,4 2,8 4,10 0,0 0,0 0,0 4,7 8,13 13,19 6,6 12,12 20,17 7,6 15,10 25,12 9,4 19,4 30,4l152 0c2,0 6,0 8,0 2,0 2,-2 3,-2 2,-2 2,-4 2,-6 0,-2 2,-6 2,-8l0 -134c0,-6 4,-10 10,-10l33 0c3,6 7,10 7,16l0 0z"/>
   <path class="fil0" d="M1704 517l236 0c6,0 10,3 10,9l0 29c0,6 -4,10 -10,10l-236 0c-8,0 -13,5 -13,13l0 121c0,6 4,11 11,13 4,0 8,0 12,0l236 0c6,0 10,4 10,10l0 29c0,6 -4,9 -10,9l-244 0c-8,0 -15,0 -23,-2 -11,-1 -19,-5 -27,-13 -8,-8 -11,-15 -13,-27 -2,-8 -2,-17 -2,-25l0 -299c0,-10 2,-23 6,-33 1,-4 5,-10 7,-13 0,0 0,0 0,0 6,-8 16,-14 25,-16 8,-2 17,-2 25,-2l242 0c6,0 10,4 10,10l0 29c0,5 -4,9 -10,9l-238 0c-4,0 -6,0 -10,2 -2,0 -3,2 -5,2 -2,2 -2,4 -2,6 0,2 0,6 0,8l0 109c2,6 7,12 13,12l0 0z"/>
   <path class="fil0" d="M4596 517l236 0c6,0 10,3 10,9l0 29c0,6 -4,10 -10,10l-236 0c-8,0 -13,5 -13,13l0 121c0,6 3,11 11,13 4,0 8,0 12,0l236 0c6,0 9,4 9,10l0 29c0,6 -3,9 -9,9l-244 0c-8,0 -15,0 -23,-2 -12,-1 -19,-5 -27,-13 -8,-8 -11,-15 -13,-27 -2,-8 -2,-17 -2,-25l0 -299c0,-10 2,-23 5,-33 2,-4 6,-10 8,-13 0,0 0,0 0,0 6,-8 16,-14 25,-16 8,-2 17,-2 25,-2l242 0c6,0 10,4 10,10l0 29c0,5 -4,9 -10,9l-238 0c-4,0 -6,0 -10,2 -2,0 -4,2 -5,2 -2,2 -2,4 -2,6 0,2 0,6 0,8l0 109c0,6 5,12 13,12l0 0z"/>
   <path class="fil0" d="M4129 751l0 -29c0,-6 4,-10 10,-10l232 0c6,0 10,0 16,-2 4,-1 7,-3 11,-7 4,-6 8,-12 10,-17 4,-10 4,-22 4,-33 0,-6 0,-12 -2,-17 -2,-6 -4,-10 -6,-16 -4,-6 -8,-9 -13,-13 -8,-6 -16,-10 -25,-12l-164 -55c-9,-4 -21,-8 -30,-14 -10,-6 -18,-11 -25,-19 0,0 0,0 0,0 -10,-10 -16,-23 -19,-37 -2,-11 -4,-25 -4,-36 0,-13 2,-25 4,-38 3,-18 13,-31 26,-41 8,-7 18,-11 27,-15 14,-6 29,-8 44,-8l208 0c6,0 9,4 9,10l0 29c0,5 -3,9 -9,9l-211 0c-8,0 -14,2 -21,4 -6,2 -12,6 -16,10 -6,5 -8,11 -8,19 0,8 -1,15 -1,23 0,6 0,11 0,19 0,6 1,10 3,14 2,5 6,9 10,13 6,6 13,8 19,11l160 56c11,4 23,8 34,14 10,3 19,11 29,19 11,9 19,23 23,36 4,12 6,23 6,37 0,4 0,6 0,9 0,6 -2,14 -2,20 -2,7 -4,17 -6,25 -4,9 -8,17 -13,25 -6,5 -12,13 -18,17 -5,4 -11,7 -19,9 -6,2 -13,4 -19,4 -6,0 -12,0 -17,0l-229 0c-4,-4 -9,-7 -8,-13l0 0z"/>
   <path class="fil0" d="M3911 616l149 127c4,2 4,8 2,12 -2,3 -6,5 -9,5l-46 0c-2,0 -4,0 -6,-2l-183 -155c0,0 0,0 0,0 -3,-4 -7,-6 -9,-10 -4,-4 -4,-9 -4,-13l0 -10c0,-5 2,-13 8,-17 3,-4 9,-6 17,-6l127 0c7,0 15,-2 21,-6 4,-3 9,-7 13,-11 4,-6 6,-15 8,-21 2,-16 4,-33 4,-46 0,-6 0,-12 0,-18 0,-7 0,-13 -2,-21 -2,-7 -2,-13 -6,-19 -2,-6 -4,-9 -10,-13 -3,-2 -5,-6 -9,-6 -4,-2 -8,-4 -12,-4 -4,0 -7,-2 -11,-2 -4,0 -6,0 -10,0l-167 0c-4,0 -6,0 -9,0 -2,0 -4,2 -6,4 -2,2 -4,4 -4,6 0,2 -2,6 -2,7l0 356c0,5 -4,9 -10,9l-32 0c-6,0 -10,-4 -10,-9l0 -350c0,-9 0,-19 2,-27 2,-11 10,-21 17,-28 8,-8 16,-12 27,-14 8,-2 18,-2 25,-2l173 0c8,0 13,0 21,2 8,0 16,2 23,6 8,4 16,8 23,11 8,6 14,14 19,22 0,0 0,0 0,0 10,13 14,28 18,46 2,15 4,32 4,48 0,13 -2,28 -2,42 -2,17 -8,32 -18,48 0,0 0,0 0,0 -5,8 -11,13 -17,19 -6,6 -13,10 -21,13 -8,4 -15,6 -21,6 -8,2 -14,2 -21,2l-33 0c-6,0 -10,4 -11,8 -6,4 -4,8 0,11l0 0z"/>
   <path class="fil0" d="M3377 517l236 0c6,0 10,3 10,9l0 29c0,6 -4,10 -10,10l-236 0c-8,0 -14,5 -14,13l0 121c0,6 4,11 12,13 4,0 7,0 11,0l237 0c5,0 9,4 9,10l0 29c0,6 -4,9 -9,9l-244 0c-8,0 -16,0 -23,-2 -12,-1 -20,-5 -27,-13 -8,-8 -12,-15 -14,-27 -2,-8 -2,-17 -2,-25l0 -299c0,-10 2,-23 6,-33 2,-4 6,-10 8,-13 0,0 0,0 0,0 6,-8 15,-14 25,-16 7,-2 17,-2 25,-2l242 0c5,0 9,4 9,10l0 29c0,5 -4,9 -9,9l-238 0c-4,0 -6,0 -10,2 -2,0 -4,2 -6,2 -2,2 -2,4 -2,6 0,2 0,6 0,8l0 109c2,6 8,12 14,12l0 0z"/>
   <path class="fil0" d="M2899 332l132 346c2,6 6,8 12,8 5,0 9,-4 11,-8l133 -346c2,-4 5,-6 9,-6l37 0c4,0 5,2 7,4 2,2 2,6 2,10l-153 388c0,0 0,0 0,0 -2,7 -8,15 -14,21 -7,9 -19,11 -30,11 -2,0 -6,0 -8,0 -4,0 -10,-2 -14,-3 -5,-2 -9,-6 -13,-10 -6,-6 -8,-12 -12,-19 0,0 0,0 0,0l-153 -388c-2,-4 0,-6 2,-10 2,-2 4,-4 7,-4l37 0c2,0 6,2 8,6l0 0z"/>
   <path class="fil1" d="M673 159c60,35 125,77 186,123 0,0 0,0 0,0 62,56 115,115 148,171 -4,-4 -9,-8 -13,-11 0,0 0,0 0,0 -94,-96 -240,-185 -404,-246 0,0 0,0 0,0 -21,-14 -117,-50 -61,-71 0,0 0,0 2,0 46,7 94,19 142,34 -2,0 0,0 0,0l0 0zm-398 565c-13,-23 -24,-46 -32,-71 0,0 0,0 0,0 -4,-10 -6,-21 -10,-31 0,-2 0,-2 0,-2 0,0 2,0 2,0 16,12 33,21 48,31 0,0 0,0 0,2 4,8 10,19 10,19 31,52 79,104 136,146 2,0 2,2 0,4 0,2 -2,2 -4,0 -44,-23 -88,-50 -128,-79l-22 -19c2,0 0,0 0,0l0 0zm212 -75c-39,-19 -79,-40 -117,-60 -31,-15 -62,-32 -91,-49 0,0 0,0 0,0 -23,-35 -52,-89 -48,-123 0,0 0,-2 2,-2 0,0 2,0 2,0l6 2c69,73 154,151 246,232zm317 -98c-71,-42 -152,-82 -240,-121 -41,-17 -81,-34 -121,-50 -6,-2 -10,-4 -16,-6 -6,-1 -34,-19 -40,-23 -29,-21 -92,-71 -71,-103 0,0 2,-2 2,-2l6 0c46,6 92,15 138,29 0,0 0,0 0,0 86,55 192,119 294,190 0,0 0,0 0,0 88,65 165,134 209,188 0,0 0,2 0,4 0,0 -2,2 -4,0 -44,-33 -92,-64 -140,-92 -2,-4 -10,-10 -17,-14l0 0z"/>
   <path class="fil0" d="M308 760c106,73 248,166 382,142 33,-5 67,-15 92,-24 -49,23 -107,36 -167,36 -61,0 -121,-13 -176,-40 -54,-27 -98,-64 -137,-108 0,0 0,-2 0,-4 4,-2 6,-2 6,-2l0 0zm701 -315c-23,-109 -75,-170 -171,-222 -86,-48 -198,-87 -261,-100 -2,0 -2,-2 -2,-2 0,-2 2,-2 2,-2 33,-2 63,0 94,4 -19,-4 -36,-4 -56,-4l2 0c196,-4 359,140 392,326l0 0zm4 118c-6,55 -25,107 -52,153l0 0 0 0 -2 2c0,0 0,0 0,0 -6,10 -11,17 -17,27 0,0 0,0 0,0 -25,35 -54,63 -87,88 25,-21 64,-65 83,-90 -125,-77 -305,-171 -474,-246 -50,-50 -96,-100 -133,-144 211,66 484,200 645,325 14,-33 31,-81 37,-115l0 0zm0 -89c2,27 2,56 0,83 0,0 0,2 -2,2 0,0 -2,0 -2,0 -165,-158 -449,-292 -674,-323 0,0 -2,0 -2,-2 0,0 0,-2 0,-2 19,-19 40,-36 62,-52 0,0 1,0 1,0 216,24 463,141 617,294 0,0 0,0 0,0l0 0zm-791 46c84,50 192,106 301,160 89,73 175,138 256,194 -177,-58 -400,-167 -550,-273 0,0 0,0 -2,-2 -5,-25 -7,-52 -9,-77 0,0 0,-2 2,-2 0,-2 0,-2 2,0l0 0z"/>
   <path class="fil0" d="M352 171c-151,-98 -265,-144 -295,-110 -52,60 151,325 457,596 305,269 593,439 647,382 30,-35 -29,-142 -144,-281 61,81 88,143 69,166 -42,48 -279,-94 -528,-315 -250,-221 -419,-438 -377,-486 20,-23 83,-4 171,48l0 0z"/>
   <path class="fil2" d="M220 530c0,-6 0,-10 0,-15l0 -2c0,5 0,11 0,17l0 0z"/>
  </g>
 </g>
</svg>
